<svg width="102" height="21" viewBox="0 0 102 21" fill="none" xmlns="http://www.w3.org/2000/svg">
<path d="M16.793 0.376704V9.17183C16.793 9.39034 17.0574 9.49741 17.2057 9.3379L19.9587 6.3552C20.0038 6.30713 20.0661 6.27872 20.1327 6.27872H24.0935C24.3063 6.27872 24.4116 6.54312 24.259 6.6939L20.3261 10.5987C20.2337 10.6905 20.2294 10.8413 20.3197 10.9374L24.663 15.6048C24.807 15.76 24.6996 16.0135 24.4911 16.0135H20.3928C20.324 16.0135 20.2595 15.985 20.2144 15.9326L17.21 12.502C17.0638 12.3359 16.7952 12.4408 16.7952 12.6637V15.7709C16.7952 15.9042 16.6877 16.0135 16.5566 16.0135H13.6038C13.4727 16.0135 13.3652 15.9042 13.3652 15.7709V0.376704C13.3674 0.243411 13.4727 0.134155 13.6038 0.134155H16.5545C16.6877 0.134155 16.793 0.243411 16.793 0.376704Z" fill="black"/>
<path d="M25.9417 6.27657H28.8924C29.0235 6.27657 29.1309 6.38582 29.1309 6.51912V7.0938C29.1309 7.31887 29.4039 7.41939 29.5478 7.25113C29.8272 6.92555 30.1496 6.68518 30.4805 6.51693C30.9942 6.23286 31.6153 6.12579 32.2578 6.12579C32.3266 6.12579 32.4384 6.14109 32.7177 6.15639C32.8445 6.16513 32.9434 6.27001 32.9434 6.39893V9.08445C32.9434 9.25489 32.7779 9.3707 32.6232 9.3117C32.3696 9.21337 31.9892 9.11067 31.467 9.11067C31.0178 9.11067 30.3967 9.17623 29.9024 9.63292C29.1739 10.3081 29.1309 11.3308 29.1309 11.8552V15.7731C29.1309 15.9064 29.0235 16.0157 28.8924 16.0157H25.9417C25.8106 16.0157 25.7031 15.9064 25.7031 15.7731V6.51693C25.7053 6.38364 25.8106 6.27657 25.9417 6.27657Z" fill="black"/>
<path d="M37.8926 0.376704V15.7687C37.8926 15.902 37.7852 16.0113 37.6541 16.0113H34.7034C34.5723 16.0113 34.4648 15.902 34.4648 15.7687V0.376704C34.4648 0.243411 34.5723 0.134155 34.7034 0.134155H37.6541C37.7852 0.134155 37.8926 0.243411 37.8926 0.376704Z" fill="black"/>
<path d="M49.8652 14.7264C48.6015 15.9894 47.1229 16.3369 45.582 16.3369C44.1894 16.3369 42.6464 16.0528 41.3204 14.7264C40.2716 13.6819 39.8418 12.4386 39.8418 11.1319C39.8418 9.39036 40.6133 8.25628 41.3204 7.55923C42.1134 6.77477 43.506 5.94879 45.582 5.94879C47.7032 5.94879 49.0743 6.7988 49.8652 7.55923C50.5722 8.25628 51.3437 9.38818 51.3437 11.1319C51.3437 12.4386 50.9161 13.6798 49.8652 14.7264ZM44.0605 9.54332C43.6328 9.95631 43.3964 10.566 43.3964 11.1341C43.3964 11.7219 43.6758 12.2878 44.0605 12.6812C44.4666 13.0942 45.0233 13.3345 45.6035 13.3345C46.1601 13.3345 46.7167 13.0942 47.1251 12.6812C47.5527 12.2682 47.7891 11.7022 47.7891 11.1341C47.7891 10.6118 47.5527 9.98035 47.1251 9.54332C46.7404 9.17404 46.1408 8.91182 45.6035 8.91182C45.0469 8.91182 44.4473 9.17185 44.0605 9.54332Z" fill="black"/>
<path d="M63.8534 6.27663C63.9844 6.27663 64.0919 6.38589 64.0919 6.51918V15.4017C64.0919 16.8614 63.963 18.1899 62.7853 19.4311C61.5646 20.6941 59.957 21 58.5666 21C56.7893 21 55.3107 20.5433 54.09 19.2803C53.6022 18.7646 53.2605 18.2489 53.0971 17.5541C53.0606 17.4011 53.1766 17.2547 53.3292 17.2547H56.6883C56.7828 17.2547 56.8666 17.3115 56.9053 17.4011C57.0708 17.7813 57.4555 18.2577 58.457 18.2577C58.9921 18.2577 59.5272 18.1484 59.9785 17.7136C60.5566 17.1695 60.6641 16.4724 60.6641 15.9065V15.4891C60.6641 15.2837 60.4277 15.1701 60.2751 15.3034C59.3467 16.1097 58.472 16.2102 57.795 16.2102C56.0392 16.2102 54.9045 15.5132 54.2598 14.838C53.4023 13.9442 52.9316 12.6157 52.9316 11.2871C52.9316 9.76191 53.5097 8.3678 54.3457 7.47627C55.2677 6.49733 56.5529 5.99475 57.8165 5.99475C58.3409 5.99475 59.3531 6.09527 60.273 6.88847C60.4277 7.02176 60.6662 6.9125 60.6662 6.7071V6.52137C60.6662 6.38807 60.7737 6.27882 60.9048 6.27882H63.8534V6.27663ZM57.1073 9.54339C56.6152 10.0656 56.4433 10.6534 56.4433 11.1123C56.4433 11.6783 56.6797 12.2661 57.1073 12.7031C57.5565 13.1598 58.1346 13.3346 58.6504 13.3346C59.1855 13.3346 59.7851 13.0942 60.1934 12.6812C60.6211 12.2464 60.836 11.6149 60.836 11.1123C60.836 10.6119 60.5566 9.93672 60.1505 9.52154C59.7658 9.13041 59.2092 8.89004 58.6289 8.89004C58.0508 8.89004 57.5586 9.08452 57.1073 9.54339Z" fill="black"/>
<path d="M66.7754 0.75224C68.8514 -0.755495 71.0908 1.52359 69.6101 3.63442C69.5929 3.65846 69.5714 3.68249 69.5477 3.69779C67.4717 5.20552 65.2324 2.92644 66.7131 0.815609C66.7282 0.791573 66.7496 0.769721 66.7754 0.75224ZM69.8744 6.5166V15.7684C69.8744 15.9017 69.7669 16.011 69.6358 16.011H66.6852C66.5541 16.011 66.4466 15.9017 66.4466 15.7684V6.5166C66.4466 6.38331 66.5541 6.27405 66.6852 6.27405H69.6358C69.7669 6.27623 69.8744 6.38331 69.8744 6.5166Z" fill="black"/>
<path d="M75.6364 0.376704V9.17183C75.6364 9.39034 75.9007 9.49741 76.049 9.3379L78.802 6.3552C78.8472 6.30713 78.9095 6.27872 78.9761 6.27872H82.9369C83.1496 6.27872 83.255 6.54312 83.1024 6.6939L79.1695 10.5987C79.0771 10.6905 79.0728 10.8413 79.1631 10.9374L83.5064 15.6048C83.6504 15.76 83.5429 16.0135 83.3345 16.0135H79.2383C79.1695 16.0135 79.105 15.985 79.0599 15.9326L76.0555 12.502C75.9093 12.3359 75.6407 12.4408 75.6407 12.6637V15.7709C75.6407 15.9042 75.5332 16.0135 75.4022 16.0135H72.4514C72.3203 16.0135 72.2129 15.9042 72.2129 15.7709V0.376704C72.2129 0.243411 72.3203 0.134155 72.4514 0.134155H75.4022C75.5289 0.134155 75.6364 0.243411 75.6364 0.376704Z" fill="black"/>
<path d="M91.94 6.27652H94.8907C95.0218 6.27652 95.1292 6.38578 95.1292 6.51907V15.7709C95.1292 15.9042 95.0218 16.0134 94.8907 16.0134H91.94C91.8089 16.0134 91.7014 15.9042 91.7014 15.7709V15.583C91.7014 15.3688 91.4521 15.2639 91.2974 15.4103C90.5259 16.1402 89.5179 16.3412 88.7228 16.3412C87.6955 16.3412 86.4318 16.0353 85.2735 14.7941C84.3515 13.7934 83.9023 12.6811 83.9023 11.2236C83.9023 9.3947 84.6094 8.10984 85.3809 7.32538C86.1954 6.49722 87.4591 5.95312 88.8302 5.95312C89.995 5.95312 90.8052 6.41419 91.3081 6.83592C91.465 6.96702 91.7014 6.85777 91.7014 6.65237V6.52344C91.7014 6.38359 91.8089 6.27652 91.94 6.27652ZM88.1038 9.54329C87.6332 9.99998 87.4183 10.6315 87.4183 11.1341C87.4183 11.7 87.6547 12.3097 88.0823 12.7248C88.4455 13.0744 89.0451 13.3782 89.6254 13.3782C90.182 13.3782 90.7386 13.1378 91.1684 12.703C91.4693 12.3971 91.811 11.9185 91.811 11.1341C91.811 10.6774 91.6821 10.0677 91.1469 9.54329C90.8246 9.23737 90.3324 8.91178 89.6039 8.91178C89.1741 8.91178 88.596 9.06256 88.1038 9.54329Z" fill="black"/>
<path d="M97.9981 15.749C97.7187 15.465 97.334 14.9427 97.334 14.1582C97.334 13.3738 97.7187 12.8515 97.9981 12.5675C98.5117 12.0452 99.0898 11.8923 99.5626 11.8923C100.098 11.8923 100.676 12.1108 101.146 12.5893C101.51 12.9586 101.768 13.4393 101.768 14.1582C101.768 14.8772 101.51 15.3557 101.125 15.749C100.676 16.2057 100.119 16.4242 99.5604 16.4242C99.0919 16.4242 98.5138 16.2713 97.9981 15.749Z" fill="black"/>
<path d="M10.7712 6.27655H7.82052C7.68942 6.27655 7.58197 6.38581 7.58197 6.5191V11.4793C7.58197 11.8705 7.5089 12.5653 7.05974 13.0111C6.73308 13.3345 6.27532 13.5071 5.86914 13.5071C5.46296 13.5071 5.00521 13.3345 4.67854 13.0111C4.22938 12.5653 4.15632 11.8705 4.15632 11.4793V6.5191C4.15632 6.38581 4.04886 6.27655 3.91777 6.27655H0.967065C0.83597 6.27655 0.728516 6.38362 0.728516 6.51691V10.8893C0.728516 11.8246 0.866057 13.7715 1.86538 14.7876C2.97861 16.0047 4.45934 16.3237 5.86914 16.3369C7.27894 16.3237 8.76182 16.0047 9.8729 14.7876C10.8722 13.7715 11.0098 11.8246 11.0098 10.8893V6.51691C11.0098 6.38362 10.9023 6.27655 10.7712 6.27655Z" fill="black"/>
</svg>
