<svg width="20" height="19" viewBox="0 0 20 19" fill="none" xmlns="http://www.w3.org/2000/svg">
<path d="M19.6267 17.306L14.941 12.6028C16.1458 11.2207 16.8059 9.48166 16.8059 7.67124C16.8059 3.44139 13.2399 0 8.85703 0C4.47412 0 0.908203 3.44139 0.908203 7.67124C0.908203 11.9011 4.47412 15.3425 8.85703 15.3425C10.5024 15.3425 12.0704 14.8635 13.411 13.9543L18.1323 18.6931C18.3296 18.8909 18.595 19 18.8795 19C19.1487 19 19.4041 18.9009 19.598 18.7208C20.0099 18.3383 20.0231 17.7039 19.6267 17.306ZM8.85703 2.00119C12.0967 2.00119 14.7323 4.54471 14.7323 7.67124C14.7323 10.7978 12.0967 13.3413 8.85703 13.3413C5.61737 13.3413 2.98181 10.7978 2.98181 7.67124C2.98181 4.54471 5.61737 2.00119 8.85703 2.00119Z" fill="black"/>
</svg>
